<svg width="1440" height="425" viewBox="0 0 1440 415" fill="none" xmlns="http://www.w3.org/2000/svg">
<g clip-path="url(#clip0)">
<path d="M0 0H1440V415H0V0Z" fill="#163A24"/>
<g clip-path="url(#clip1)">
<path d="M1471.76 541.201C1406.43 550.491 1336.88 510.76 1297.93 441.89C1296.13 438.716 1294.32 435.157 1294.49 431.309C1294.96 420.861 1307.75 420.454 1312.48 412.033C1319.31 399.87 1305.33 385.223 1293.72 380.846C1277.79 374.831 1260.12 370.481 1248.98 354.67C1234.74 334.426 1237.07 303.734 1243.51 278.672C1249.95 253.611 1259.72 228.688 1257.5 202.14C1255.75 181.455 1249.45 153.464 1264.45 145.645C1273.56 140.9 1283.9 148.987 1291.28 157.825C1315.08 186.334 1330.29 227.157 1359.09 246.76C1379.5 260.656 1403.77 261.569 1424.83 273.771C1448.38 287.416 1465.94 314.076 1478.98 342.407C1490.28 366.911 1498.99 394.139 1499.36 422.103C1499.72 450.066 1490.67 478.864 1472.39 493.913" fill="#194429"/>
<path d="M1309.44 715.273C1344.8 683.473 1375.19 644.393 1399.22 599.845C1412.79 574.655 1424.23 547.906 1435.13 520.923C1442.84 501.843 1450.38 482.44 1454.42 461.794C1458.16 442.731 1458.86 423.01 1459.09 403.418C1459.49 370.281 1458.62 337.173 1456.5 304.096C1453.99 264.799 1449.42 224.65 1433.92 189.926C1428.65 178.097 1421.15 166.201 1410.24 163.227C1394.59 158.95 1380.21 174.722 1371.23 190.711C1358.42 213.545 1349.86 239.325 1341.77 265.061C1314.29 352.448 1290.64 444.558 1296.95 537.62" fill="#198C36"/>
<path d="M1380.96 526.955C1387.95 504.789 1394.01 482.241 1399.15 459.311C1404.28 436.38 1408.45 413.175 1411.66 389.695C1414.88 366.304 1417.15 342.77 1418.45 319.094C1419.76 295.417 1420.08 271.731 1419.44 248.036C1418.78 224.294 1417.15 200.58 1414.53 177.028C1414.22 174.098 1413.88 171.167 1413.51 168.234C1413.05 164.519 1408.33 165.884 1408.78 169.576C1411.61 192.868 1413.47 216.316 1414.34 239.832C1415.21 263.312 1415.11 286.803 1414.05 310.305C1412.98 333.852 1410.96 357.312 1407.98 380.684C1405.02 403.867 1401.12 426.834 1396.26 449.587C1391.39 472.339 1385.61 494.785 1378.89 516.924C1378.05 519.705 1377.19 522.49 1376.31 525.278C1375.19 528.77 1379.85 530.447 1380.96 526.955Z" fill="#153A23"/>
<path d="M1419.27 249.25C1422.67 236.652 1423.14 233.723 1428.3 222.061C1428.91 220.674 1435.93 205.726 1434.76 204.863C1433.71 204.078 1427.63 213.484 1427.01 214.888C1421.66 226.978 1418.15 234.497 1414.62 247.557C1413.66 251.104 1418.3 252.797 1419.27 249.25Z" fill="#153A23"/>
<path d="M1418.56 321.299C1422.13 304.341 1423.66 297.908 1429.21 281.813C1429.71 280.36 1437.32 263.485 1436.16 263.056C1434.8 262.56 1430.63 269.65 1429.9 270.964C1417.33 293.47 1417.47 302.642 1413.89 319.601C1413.14 323.232 1417.78 324.941 1418.56 321.299Z" fill="#153A23"/>
<path d="M1413.9 372.224C1419.1 352.244 1425.13 332.59 1431.96 313.335C1433.88 307.933 1433.81 307.894 1435.86 302.559C1436.42 301.133 1439.67 290.618 1438.47 289.721C1437.45 288.97 1431.3 300.782 1430.74 302.219C1423.33 321.538 1419.72 333.217 1413.95 353.333C1412.31 359.036 1410.75 364.765 1409.25 370.52C1408.31 374.112 1412.97 375.811 1413.9 372.224Z" fill="#153A23"/>
<path d="M1406.74 417.04C1416.6 402.638 1428.63 381.13 1435.73 364.545C1446.98 338.213 1435.04 353.406 1431.6 361.481C1424.69 377.632 1415.42 392.14 1405.83 406.147C1404.99 407.361 1404.76 409.032 1405.74 410.268C1406.56 411.298 1405.24 414.89 1406.08 413.665L1406.74 417.04H1406.74Z" fill="#153A23"/>
<path d="M1360.71 439.774C1303.78 454.755 1241.85 439.646 1194.22 399.168C1174.98 382.823 1157.17 360.557 1153.38 332.555C1152.95 329.38 1152.8 325.782 1154.51 323.31C1155.95 321.26 1158.26 320.536 1160.43 320.035C1211.17 308.15 1261.22 344.712 1298.49 387.924C1289.96 363.397 1285.71 337.022 1286.02 310.439C1286.11 302.848 1288.38 292.991 1294.67 292.757C1298.57 292.612 1301.62 296.555 1304.08 300.231C1327.8 335.913 1346.02 376.405 1357.89 419.797" fill="#1F7A36"/>
<path d="M1154.17 324.056C1179.24 316.343 1205.9 321.589 1229.45 333.563C1253.89 345.988 1275.1 365.692 1294.45 387.25C1305.64 399.709 1316.29 412.869 1326.92 425.99C1329.27 428.892 1333.17 425.316 1332.17 421.769C1323.78 391.778 1315.1 361.894 1306.98 331.792C1300.66 308.334 1297.79 312.968 1302.92 333.646C1310.44 363.976 1317.6 394.351 1326 424.319L1331.25 420.098C1312.07 396.378 1292.73 372.514 1270.43 352.983C1248.62 333.903 1223.81 319.066 1196.94 314.232C1181.97 311.542 1166.74 312.082 1152.06 316.604C1150.35 317.128 1149.49 319.706 1150.02 321.617C1150.63 323.75 1152.46 324.58 1154.17 324.056Z" fill="#163A24"/>
<path d="M1366.27 431.42C1342.51 431.368 1318.85 427.796 1295.82 420.783C1272.76 413.786 1250.49 403.446 1229.5 389.99C1217.75 382.466 1212.57 382.65 1199.48 370.993C1198.1 369.735 1184.43 357.07 1183.18 358.791C1182.1 360.262 1189.93 369.183 1191.37 370.442C1211.04 387.708 1232.39 401.996 1254.96 412.986C1277.61 424.019 1301.29 431.687 1325.49 435.82C1339.14 438.121 1352.9 439.279 1366.69 439.284C1370.86 439.284 1370.46 431.42 1366.27 431.42Z" fill="#194429"/>
<path d="M1218.67 365.09C1236.86 379.398 1250.77 399.926 1267.14 416.884C1270.33 420.187 1281.58 420.499 1278.38 417.191C1261.53 399.787 1245.44 378.963 1226.73 364.244C1225.25 363.08 1212.12 355.222 1211.38 356.97C1210.5 359.009 1217.19 363.926 1218.67 365.09Z" fill="#194429"/>
<path d="M1267.22 385.563C1280.94 401.424 1286.13 414.339 1300.32 427.817C1303.61 430.941 1318.53 431.927 1315.22 428.78C1301.02 415.308 1285.24 396.35 1271.84 381.753C1259.26 368.053 1251.5 366.677 1267.22 385.563Z" fill="#194429"/>
<path d="M1202.98 274.868C1202.65 269.121 1202.74 258.874 1203.28 253.148C1203.39 252.035 1203.82 250.614 1204.75 250.709C1205.6 250.781 1205.89 252.09 1205.97 253.104C1206.5 259.509 1207.01 265.924 1207.49 272.351C1212 269.936 1216.93 268.878 1221.85 269.271C1221.99 269.285 1222.12 269.343 1222.23 269.439C1222.34 269.536 1222.43 269.667 1222.49 269.819C1222.54 269.972 1222.56 270.139 1222.54 270.304C1222.53 270.468 1222.47 270.623 1222.38 270.753C1220.35 273.784 1217.58 275.981 1214.47 277.04C1213.34 277.414 1212.06 277.77 1211.5 279.001C1211.14 279.797 1211.23 280.755 1211.3 281.652C1211.74 287.209 1211.57 292.813 1210.79 298.315C1210.75 298.526 1210.66 298.72 1210.53 298.87C1210.4 299.02 1210.24 299.119 1210.06 299.155C1209.89 299.192 1209.71 299.163 1209.54 299.072C1209.38 298.982 1209.24 298.834 1209.15 298.649C1206.96 294.394 1207.21 288.508 1205.71 283.612C1205.58 283.044 1205.31 282.539 1204.93 282.17C1204.38 281.837 1203.75 281.744 1203.14 281.908C1198.44 282.522 1193.7 282.708 1188.98 282.465C1187.7 282.393 1185.95 281.446 1186.48 280.081C1186.68 279.675 1186.98 279.354 1187.33 279.162C1189.76 277.512 1192.44 276.448 1195.21 276.032L1202.98 274.868Z" fill="#FBC8B8"/>
<path d="M1428.4 103.892C1429.6 96.2791 1432.61 82.9686 1434.94 75.7286C1435.4 74.3307 1436.33 72.6488 1437.54 73.15C1438.62 73.5956 1438.64 75.4167 1438.46 76.77C1437.33 85.3096 1436.17 93.8695 1434.99 102.45C1441.54 101.145 1448.26 101.783 1454.56 104.31C1454.73 104.385 1454.89 104.515 1455 104.687C1455.12 104.859 1455.2 105.066 1455.23 105.285C1455.25 105.505 1455.23 105.73 1455.16 105.936C1455.09 106.142 1454.97 106.321 1454.83 106.454C1451.33 109.571 1447.11 111.301 1442.75 111.405C1441.18 111.405 1439.4 111.366 1438.33 112.742C1437.64 113.638 1437.49 114.914 1437.31 116.083C1436.32 123.501 1434.52 130.727 1431.94 137.57C1431.83 137.829 1431.66 138.044 1431.45 138.186C1431.24 138.329 1431 138.392 1430.76 138.367C1430.52 138.342 1430.3 138.231 1430.11 138.048C1429.92 137.865 1429.79 137.619 1429.72 137.341C1428.07 130.903 1430.06 123.34 1429.48 116.395C1429.47 115.603 1429.26 114.833 1428.87 114.195C1428.32 113.46 1427.43 113.265 1426.62 113.121C1420.32 111.999 1414.11 110.308 1408.02 108.064C1406.38 107.445 1404.37 105.496 1405.45 103.937C1405.82 103.488 1406.29 103.19 1406.81 103.085C1410.45 101.926 1414.24 101.633 1417.97 102.222L1428.4 103.892Z" fill="#FBC8B8"/>
<path d="M1162.96 394.05C1158.9 398.667 1159.9 408.43 1166.86 406.091C1177.12 402.621 1169.91 386.142 1162.96 394.05Z" fill="#F7BC28"/>
<path d="M1324.1 242.522C1320.45 242.895 1317.51 248.414 1321.79 250.642C1328.16 253.939 1330.36 241.893 1324.1 242.522Z" fill="#F7BC28"/>
<path d="M1337.71 188.935C1333.65 193.557 1334.65 203.32 1341.6 200.976C1351.87 197.506 1344.66 181.032 1337.71 188.935Z" fill="#F7BC28"/>
</g>
<g clip-path="url(#clip2)">
<path d="M-157 527.751C-107.21 506.831 -61.6911 477.619 -22.5587 441.472C-0.433884 421.016 19.4692 398.506 38.8546 375.61C52.5459 359.46 66.0919 342.891 75.7584 324.217C84.6863 306.953 90.1187 288.279 94.9519 269.594C103.157 237.983 109.853 206.053 115.041 173.803C121.189 135.503 125.097 95.8336 114.64 58.4139C111.08 45.6659 104.874 32.2384 92.5091 26.4631C74.7755 18.1649 53.8662 29.3925 39.3897 42.2686C18.7305 60.6471 2.46259 83.0466 -13.2296 105.496C-66.5235 181.734 -116.333 263.524 -130.484 354.314" fill="#194429"/>
<path d="M-27.4153 366.761C-13.8635 347.454 -1.33735 327.509 10.1632 306.925C21.6638 286.341 32.0748 265.248 41.3963 243.647C50.7216 222.135 58.9224 200.216 65.9988 177.891C73.0752 155.566 78.9922 132.98 83.7499 110.135C88.5075 87.2272 92.0748 64.1296 94.4517 40.8428C94.7425 37.9468 95.0178 35.0452 95.2776 32.138C95.6033 28.4679 89.6243 28.5013 89.2985 32.138C87.2435 55.191 83.9903 78.1047 79.5389 100.879C75.0954 123.583 69.4963 146.046 62.7418 168.267C55.9872 190.488 48.0946 212.413 39.064 234.04C30.1186 255.433 20.0799 276.362 8.94764 296.828C-2.18458 317.293 -14.3501 337.22 -27.5491 356.608C-29.2125 359.044 -30.8914 361.472 -32.5859 363.892C-34.7379 366.956 -29.5557 369.818 -27.4153 366.761Z" fill="#153A23"/>
<path d="M83.2555 111.249C90.2757 100.111 91.5146 97.4266 100.419 87.6581C101.472 86.4941 113.372 74.0747 112.174 72.933C111.08 71.886 101.623 79.2597 100.541 80.4292C91.311 90.5541 85.3552 96.8084 78.0791 108.365C76.0958 111.528 81.2664 114.402 83.2555 111.249Z" fill="#153A23"/>
<path d="M65.5859 180.041C73.8216 164.77 77.166 159.028 87.5828 145.105C88.5308 143.846 101.577 129.745 100.274 129.015C98.7615 128.174 92.1311 133.832 90.9271 134.896C70.6285 153.052 68.6569 161.868 60.4153 177.144C58.653 180.43 63.812 183.326 65.5859 180.041Z" fill="#153A23"/>
<path d="M48.1256 227.53C59.0213 209.812 70.8127 192.644 83.4998 176.025C87.0593 171.369 86.9895 171.325 90.6887 166.769C91.6774 165.549 98.0345 156.366 96.7957 155.18C95.7604 154.194 85.6286 163.834 84.634 165.065C71.2334 181.567 64.2016 191.775 52.6216 209.474C49.318 214.494 46.0997 219.554 42.9667 224.656C40.9892 227.841 46.1772 230.721 48.1256 227.53Z" fill="#153A23"/>
<path d="M29.1008 268.514C44.2695 257.375 63.7014 240.044 76.0667 226.076C95.6848 203.905 77.8116 215.249 71.8267 222.027C59.7988 235.599 45.299 247.011 30.5316 257.832C29.252 258.767 28.5774 260.304 29.4672 261.73C30.2059 262.939 27.7805 266.024 29.0717 265.072L29.1008 268.514Z" fill="#153A23"/>
<path d="M-78.2431 441.745C-52.995 436.493 -29.672 425.238 -8.97209 410.607C11.8499 395.904 29.9383 377.86 45.9445 358.44C65.0333 335.255 81.1966 310.043 97.4122 284.982C112.895 261.034 128.238 236.602 147.001 214.843C162.077 197.366 180.869 180.781 204.116 174.36C206.986 173.573 209.899 172.938 212.841 172.455L208.822 170.601C212.695 177.284 206.862 184.624 201.976 189.408C198.405 192.9 194.368 195.924 190.472 199.065L176.559 210.265C158.409 224.886 140.25 239.507 122.085 254.128C111.895 262.337 106.544 267.166 96.3478 275.369C94.9635 276.483 89.9209 281.924 90.9213 283.311C91.8577 284.598 94.033 285.472 95.5743 284.492C119.341 269.305 148.377 263.641 176.454 268.714C175.71 266.676 174.965 264.643 174.221 262.588C150.371 282.862 122.995 298.976 93.335 310.199C85.0436 313.329 76.5937 316.06 68.0171 318.381L72.4257 321.973C76.8344 298.844 73.6471 274.578 63.8701 253.042C61.122 247 57.8353 241.196 54.0465 235.694C52.2726 233.115 48.6258 233.232 47.3172 236.167C37.9116 257.526 34.4739 280.862 37.3424 303.878C39.7735 323.482 48.1896 346.761 71.3614 350.387C82.2319 352.058 93.1256 348.716 103.984 349.986C110.894 350.782 119.229 354.441 121.805 360.829C122.794 363.291 122.317 366.805 120.799 369.044C120.009 370.163 118.997 371.122 117.821 371.868C116.414 372.713 114.888 373.364 113.29 373.8C109.404 374.792 105.375 375.169 101.361 374.914C97.29 374.741 93.2187 374.357 89.4381 373.243C89.1706 373.16 88.9205 373.065 88.6646 372.965C88.083 372.742 89.1008 373.26 88.3912 372.803C87.7747 372.419 87.1698 372.035 86.5882 371.611C86.0066 371.188 86.5882 371.656 86.1404 371.261C85.8786 371.027 85.6227 370.798 85.3668 370.553C84.6979 369.918 84.0581 369.25 83.4416 368.565C80.9182 365.678 78.5648 362.658 76.3924 359.521C72.1931 353.667 68.0578 346.834 61.8519 342.701C60.5656 341.827 59.1339 341.168 57.6177 340.752C53.0985 339.605 50.772 346.227 55.3261 347.396C55.6285 347.474 55.9077 347.569 56.2276 347.664C56.5475 347.758 57.2862 348.182 56.5068 347.758C57.1316 348.093 57.7338 348.465 58.3098 348.872C59.4492 349.749 60.5006 350.726 61.4506 351.79C64.0846 354.747 66.5244 357.857 68.7557 361.102C73.0364 367.061 77.259 374.184 83.7092 378.261C86.9953 380.35 91.0725 380.856 94.8996 381.385C99.4078 382.014 103.977 382.138 108.515 381.753C116.809 381.029 125.563 377.632 128.628 369.612C131.85 361.18 127.086 352.938 119.717 348.282C116.021 345.975 111.896 344.37 107.567 343.554C102.211 342.534 96.8305 342.841 91.4156 343.253C80.7022 344.072 69.4246 345.336 60.4211 338.525C52.7379 332.705 48.7887 323.053 46.596 314.187C41.1345 292.032 43.1993 267.901 50.993 246.509C51.9934 243.777 53.0849 241.076 54.2675 238.406L47.5382 238.88C60.51 257.771 67.3095 279.934 67.069 302.542C66.9839 308.952 66.3361 315.344 65.1322 321.65C64.7193 323.822 67.4587 325.804 69.5409 325.247C101.223 316.652 131.078 302.782 157.738 284.275C165.123 279.15 172.236 273.674 179.048 267.868C181.672 265.64 179.787 262.298 176.821 261.741C154.202 257.698 130.442 260.544 109.353 269.338C103.397 271.827 100.332 273.236 94.917 276.706C96.2664 278.622 94.9868 282.097 96.3303 284.013C115.225 268.79 134.124 253.568 153.027 238.345L181.369 215.511L195.817 203.877C199.806 200.658 203.959 197.567 207.519 193.919C214.335 186.985 220.786 176.938 215.307 167.471C214.93 166.793 214.337 166.248 213.614 165.914C212.891 165.581 212.076 165.476 211.288 165.616C186.592 169.721 165.834 184.552 149.205 201.816C129.919 221.893 114.617 245.323 99.57 268.369C83.0927 293.67 67.1621 319.333 48.7538 343.37C33.178 363.692 15.6537 382.694 -4.75534 398.661C-24.1815 413.86 -46.3819 426.24 -70.6355 432.756C-73.6425 433.564 -76.6844 434.277 -79.7321 434.917C-84.3443 435.853 -82.8437 442.697 -78.2431 441.745Z" fill="#1F7A36"/>
<path d="M5.00427 497.182C12.798 511.929 20.8941 526.476 33.2012 537.224C48.6956 550.758 67.2319 561.685 88.8507 563.606C110.47 565.527 135.537 557.09 151.468 538.338C154.679 534.557 157.61 530.062 157.802 525.468C158.209 515.772 147.414 512.38 139.132 509.105C130.85 505.831 123.399 495.071 130.803 487.68L178.077 502.717C190.216 506.577 203.04 510.459 216.551 507.279C230.062 504.099 244.068 491.128 243.783 477.511C243.201 448.824 191.437 458.77 184.178 432.211C196.433 426.914 209.188 429.365 220.733 432.489C232.278 435.614 244.213 439.339 256.794 436.31C269.374 433.28 282.466 420.526 281.082 408.079C278.831 387.991 243.981 385.941 248.407 365.018C249.983 357.561 256.422 351.568 260.691 344.846C270.078 330.037 275.749 298.811 255.979 286.62C243.422 278.839 220 282.665 208.496 296.032C196.346 310.116 194.7 328.957 186.063 352.626C181.991 363.848 170.156 357.884 165.747 348.494C164.351 345.52 164.531 341.811 164.537 338.28C164.537 321.706 157.017 303.706 140.935 303.489C124.94 303.272 110.702 321.093 106.131 337.69C101.559 354.286 103.083 371.027 99.3257 387.712C98.5696 391.054 97.4878 394.635 94.9868 397.23C88.2051 404.27 77.6662 398.378 75.1361 390.207C72.6061 382.037 73.8565 372.091 69.634 364.929C64.7076 356.575 53.1218 354.453 42.8387 357.867C32.5556 361.281 23.5405 369.195 16.1481 377.899C1.10741 395.654 -8.63474 417.77 -10.967 439.467C-10.967 439.484 -7.56456 473.412 5.00427 497.182Z" fill="#198C36"/>
<path d="M138.434 126.476C135.747 118.679 132.117 104.483 130.937 96.3407C130.722 94.759 130.937 92.6093 132.577 92.3476C134.078 92.0858 135.072 93.7622 135.596 95.1322C138.868 103.761 142.116 112.404 145.338 121.063C152.264 115.816 160.421 112.264 169.103 110.715C169.345 110.676 169.594 110.7 169.823 110.786C170.052 110.872 170.252 111.016 170.402 111.203C170.552 111.389 170.646 111.611 170.675 111.845C170.703 112.079 170.664 112.316 170.563 112.531C168.162 117.581 164.18 121.791 159.169 124.577C157.354 125.574 155.249 126.61 154.743 128.548C154.417 129.801 154.917 131.087 155.365 132.296C158.187 139.782 159.959 147.593 160.634 155.525C160.649 155.832 160.567 156.135 160.399 156.397C160.231 156.658 159.985 156.865 159.692 156.99C159.399 157.115 159.074 157.153 158.759 157.098C158.443 157.043 158.152 156.899 157.924 156.684C152.561 151.732 150.817 143.501 146.414 137.414C145.985 136.677 145.32 136.092 144.518 135.743C143.488 135.398 142.348 135.743 141.33 136.133C133.398 138.98 125.254 141.253 116.966 142.933C114.727 143.373 111.342 142.805 111.767 140.705C111.953 140.061 112.348 139.489 112.895 139.074C116.507 135.758 120.761 133.151 125.417 131.399L138.434 126.476Z" fill="#FBC8B8"/>
<path d="M169.789 61.2377C164.525 66.005 165.822 76.0853 174.838 73.6682C188.139 70.0872 178.798 53.0732 169.789 61.2377Z" fill="#F7BC28"/>
<path d="M282.629 343.125C277.395 347.898 278.669 357.973 287.678 355.556C300.974 351.975 291.668 334.966 282.629 343.125Z" fill="#F7BC28"/>
<path d="M297.519 368.371C295.041 370.492 295.658 374.97 299.898 373.901C306.162 372.33 301.759 364.745 297.519 368.371Z" fill="#F7BC28"/>
</g>
</g>
<defs>
<clipPath id="clip0">
<rect width="1440" height="415" fill="white"/>
</clipPath>
<clipPath id="clip1">
<rect width="300" height="400" fill="white" transform="translate(1149 19.7969)"/>
</clipPath>
<clipPath id="clip2">
<rect width="300" height="400" fill="white" transform="translate(9 19.7969)"/>
</clipPath>
</defs>
</svg>
