<svg width="116" height="48" viewBox="0 0 116 48" fill="none" xmlns="http://www.w3.org/2000/svg">
<g filter="url(#filter0_d)">
<path d="M11.8398 20.5428C11.8398 14.5366 15.7207 10.0972 21.4988 10.0972C26.0696 10.0972 29.7779 12.8827 29.7779 15.6682C29.7779 16.8433 29.0017 17.6267 27.7081 17.6267C24.5603 17.6267 24.6897 11.8817 20.5502 11.8817C18.2217 11.8817 16.1088 14.1884 16.1088 17.8879C16.1088 23.72 19.5153 27.5501 23.0511 27.5501C25.9833 27.5501 27.665 25.4174 28.5705 23.8506C29.0449 23.2413 30.0798 23.4153 29.9504 24.3293C29.6485 28.0288 26.9751 31.5107 21.7575 31.5107C16.2381 31.5107 11.8398 26.2008 11.8398 20.5428Z" fill="#133A23"/>
<path d="M31.373 30.7277V30.5971C31.373 29.8572 32.4942 29.6396 32.4942 28.3774V13.9277C32.4942 12.622 31.373 12.3173 31.373 11.708V11.5774C31.373 11.2727 31.5886 11.1422 31.9336 10.9681L35.5988 9.14014C36.375 8.74843 36.8062 9.18366 36.8062 9.66242V28.3339C36.8062 29.5525 38.0567 29.8137 38.0567 30.5536V30.6841C38.0567 30.9888 37.7549 31.2064 37.3668 31.2064H32.063C31.6318 31.2064 31.373 31.0323 31.373 30.7277Z" fill="#133A23"/>
<path d="M52.5024 27.0713C52.3299 28.7687 50.3463 31.5107 46.5949 31.5107C42.5416 31.5107 39.5663 28.5511 39.5663 24.0247C39.48 20.1511 42.4984 16.8869 46.3793 16.7998C46.4655 16.7998 46.5518 16.7998 46.5949 16.7998C50.3895 16.7998 52.1143 19.0195 52.1143 20.978C52.1574 21.8485 51.64 22.6319 50.8207 22.9366L44.3526 25.8962C44.9994 27.463 46.5086 28.4641 48.1903 28.4641C49.5271 28.5076 50.7775 27.8547 51.5106 26.7666C51.8556 26.3314 52.5024 26.462 52.5024 27.0713ZM43.5764 22.0226C43.5764 22.8931 43.6627 23.72 43.8783 24.547L47.6298 22.6319C48.1472 22.3708 48.449 21.805 48.4059 21.2392C48.4059 20.1946 47.6298 18.1055 46.0774 18.1055C44.5251 18.1055 43.5764 19.8029 43.5764 22.0226Z" fill="#133A23"/>
<path d="M65.5245 19.4986C65.5245 20.7173 65.0502 21.8054 63.6703 21.8054C61.3849 21.8054 62.4198 19.281 60.8244 19.281C59.7032 19.281 59.272 20.8914 59.272 22.5017V28.3774C59.272 29.596 60.7381 29.8572 60.7381 30.5971V30.7276C60.7381 31.0758 60.4794 31.2499 60.0913 31.2499H54.7444C54.3132 31.2499 54.0545 31.0758 54.0545 30.7276V30.5971C54.0545 29.8572 55.1756 29.6396 55.1756 28.3774V21.5442C55.1756 20.2385 53.8389 20.1515 53.8389 19.4116V19.281C53.8389 18.9764 54.0545 18.7587 54.4426 18.5846L57.9353 16.9308C58.5821 16.6261 58.8839 16.9743 58.8839 17.5401V19.7598C59.5308 17.8883 60.9106 16.8437 62.851 16.8437C64.2309 16.7567 65.4382 17.8447 65.5245 19.2375C65.5245 19.3245 65.5245 19.4116 65.5245 19.4986Z" fill="#133A23"/>
<path d="M82.6004 30.6404V30.7275C82.6004 31.0757 82.3848 31.2498 81.9967 31.2498H76.5636C76.2617 31.2933 76.003 31.0757 76.003 30.771V30.7275V30.684C76.003 29.9441 77.081 29.77 76.6067 29.0736L73.4589 24.5907L71.7341 26.2011V28.4207C71.7341 29.6394 72.9846 29.9005 72.9846 30.6404V30.771C72.9846 31.0757 72.7258 31.2933 72.2946 31.2933H66.9477C66.5596 31.2933 66.3009 31.0757 66.3009 30.771V30.6404C66.3009 29.9005 67.422 29.6829 67.422 28.4207V13.9275C67.422 12.6218 66.1284 12.3171 66.1284 11.7078V11.5772C66.1284 11.2726 66.344 11.142 66.7321 10.9679L70.6129 9.13992C71.3029 8.79173 71.7772 9.18344 71.7772 9.6622V23.9378L76.3911 19.9337C77.2535 19.1938 75.7011 18.4539 75.7011 17.7575V17.627C75.7011 17.3223 75.9167 17.1047 76.3048 17.1047H80.4444C80.7893 17.1047 81.0481 17.2788 81.0481 17.5834V17.714C81.0481 18.4539 79.6251 18.9327 78.5471 19.8902L76.1755 22.1099L81.0481 29.0301C81.5224 29.6829 82.6004 29.9441 82.6004 30.6404Z" fill="#133A23"/>
<path d="M82.6001 28.0723C82.6001 26.9407 83.3763 26.462 84.3249 26.462C86.869 26.462 85.8772 30.3356 88.8094 30.3356C90.0168 30.3356 90.9223 29.7262 90.9223 28.377C90.9223 24.4599 82.8157 26.8972 82.8157 21.1086C82.8157 18.6278 85.2304 16.7998 88.7232 16.7998C92.3884 16.7998 94.7169 18.4972 94.7169 20.3252C94.6738 21.1957 93.9407 21.892 93.1215 21.8485C90.7067 21.8485 91.5691 18.0185 89.025 18.0185C87.9901 17.9749 87.1277 18.8019 87.1277 19.8464C87.1277 19.89 87.1277 19.9335 87.1277 19.977C87.1277 23.9812 95.0619 21.6309 95.0619 27.2454C95.0619 29.6392 92.7334 31.4672 88.8525 31.4672C85.058 31.4672 82.6001 29.9003 82.6001 28.0723Z" fill="#133A23"/>
<path d="M111.534 17.5834V17.714C111.534 18.4539 110.629 18.715 110.068 20.0207L104.549 32.1202C103.6 34.2093 101.185 39.3886 98.1668 39.3886C95.5365 39.3886 93.8979 37.7782 93.8979 36.2549C93.8548 35.3409 94.5447 34.5575 95.4502 34.514C95.5365 34.514 95.5796 34.514 95.6658 34.514C98.0375 34.514 97.3044 38.0394 98.8136 38.0394C99.8485 38.0394 101.918 34.0788 102.738 32.0767L96.9163 20.0207C96.2695 18.715 95.364 18.4539 95.364 17.714V17.5834C95.364 17.2788 95.6227 17.1047 95.9677 17.1047H101.401C101.66 17.0611 101.918 17.2788 101.961 17.5834V17.6269V17.7575C101.961 18.4974 100.883 18.5845 101.53 20.1078L104.937 28.0725L108.085 20.543C108.861 18.715 106.791 18.4974 106.791 17.801V17.6705C106.791 17.3658 107.007 17.1482 107.395 17.1482H110.93C111.275 17.1047 111.534 17.3223 111.534 17.5834Z" fill="#133A23"/>
<path d="M7.57099 18.5846C7.61411 18.6281 7.57099 18.7151 7.52787 18.7586C7.48475 18.8022 7.39851 18.7586 7.35539 18.7151C6.49298 17.4965 4.81129 14.4934 4.94065 9.48822C4.94065 8.00843 5.24249 6.52863 5.80306 5.13589C6.27738 4.00428 7.57099 2.13278 9.03708 2.74211C10.5032 3.35143 8.47652 5.61464 8.04531 6.26749C5.54433 10.054 6.14802 14.5369 7.57099 18.5846Z" fill="#FDBC4E"/>
<path d="M8.38989 16.2777C8.38989 16.3212 8.34677 16.3212 8.30365 16.3212C8.26053 16.3212 8.26053 16.2777 8.26053 16.2777C8.08805 14.4932 8.00181 10.5761 9.64038 7.1378C10.4165 5.44039 11.6239 3.96059 13.1331 2.87251C13.6937 2.4808 14.3405 2.26318 15.0304 2.26318C15.8497 2.35023 16.4965 3.09013 16.1084 3.91707C15.5047 5.17925 13.8662 5.35334 12.8313 6.13676C11.4946 7.1378 10.5459 8.66111 9.8991 10.1844C9.12294 12.0995 8.60549 14.1886 8.38989 16.2777Z" fill="#FDBC4E"/>
<path d="M10.0288 15.3638C10.0288 15.0156 10.0719 14.6674 10.1582 14.3628C10.5031 13.1441 10.9775 11.969 11.6243 10.8809C13.3491 7.96485 15.8501 5.39698 19.1703 4.61356C20.1621 4.35242 23.3961 4.35242 22.3612 6.26744C21.6713 7.4861 19.6878 6.96382 18.5666 7.18143C16.4106 7.61667 14.6858 8.96589 13.1766 10.4892C11.538 12.1866 10.115 15.4073 10.0288 15.3638Z" fill="#FDBC4E"/>
</g>
<defs>
<filter id="filter0_d" x="-1" y="0" width="118" height="50" filterUnits="userSpaceOnUse" color-interpolation-filters="sRGB">
<feFlood flood-opacity="0" result="BackgroundImageFix"/>
<feColorMatrix in="SourceAlpha" type="matrix" values="0 0 0 0 0 0 0 0 0 0 0 0 0 0 0 0 0 0 127 0" result="hardAlpha"/>
<feOffset dy="4"/>
<feGaussianBlur stdDeviation="2"/>
<feComposite in2="hardAlpha" operator="out"/>
<feColorMatrix type="matrix" values="0 0 0 0 0 0 0 0 0 0 0 0 0 0 0 0 0 0 0.25 0"/>
<feBlend mode="normal" in2="BackgroundImageFix" result="effect1_dropShadow"/>
<feBlend mode="normal" in="SourceGraphic" in2="effect1_dropShadow" result="shape"/>
</filter>
</defs>
</svg>
